# xmcd
#
# Track frame offsets:
#	150
#	13122
#	26049
#	37731
#	49052
#	62611
#	76047
#	89208
#	104209
#	116831
#	131933
#	144952
#	156544
#	169356
#	180503
#	193055
#	204267
#	217958
#
# Disc length: 3068 seconds
#
# Revision: 2
# Processed by: cddbd v1.5.2PL0 Copyright (c) Steve Scherf et al.
# Submitted via: audiograbber 1.83.01
#
DISCID=060bfa12
DTITLE=Isley Brothers - Essential Collection
DYEAR=2001
DGENRE=Blues
TTITLE0=Got To Have You Back
TTITLE1=Greetings (This Is Uncle Sam)
TTITLE2=All Because I Love You
TTITLE3=Catching Up On Time
TTITLE4=Born To Love You
TTITLE5=Ain't That Real Satisfaction
TTITLE6=How Sweet It Is (To Be Loved By You)
TTITLE7=I Hear A Symphony
TTITLE8=No Good Without You
TTITLE9=It Moves Me To Tears
TTITLE10=I Can't Help It (I Love You)
TTITLE11=Sad Souvenirs
TTITLE12=Nowhere To Run
TTITLE13=Take Some Time Out For Love
TTITLE14=Share A Little Love With Me (Somebody)
TTITLE15=You've Got So Much To Shout About
TTITLE16=Trouble
TTITLE17=Put Yourself In My Place
EXTD=
EXTT0=
EXTT1=
EXTT2=
EXTT3=
EXTT4=
EXTT5=
EXTT6=
EXTT7=
EXTT8=
EXTT9=
EXTT10=
EXTT11=
EXTT12=
EXTT13=
EXTT14=
EXTT15=
EXTT16=
EXTT17=
PLAYORDER=
